<svg xmlns="http://www.w3.org/2000/svg" viewBox="0 0 39 27" width="39" height="27">
	<style>
		tspan { white-space:pre }
		.shp0 { fill: #ffffff } 
	</style>
	<path id="&lt;Compound Path&gt;" fill-rule="evenodd" class="shp0" d="M38.01 22C36.36 25 33.16 26.61 28.43 26.83L26.34 24.22C29.85 23.18 31.54 20.65 31.56 20.63L31.51 20.63C28.18 22.07 24.02 22.92 19.5 22.92C14.98 22.92 10.82 22.07 7.49 20.63L7.44 20.63C7.46 20.65 9.15 23.18 12.66 24.22L10.57 26.83C5.84 26.61 2.64 25 0.99 22C0.94 20.42 1.06 18.5 1.37 16.23C1.85 12.6 2.93 7.8 5.36 3.49C7.74 1.59 10.7 0.48 14.22 0.17L14.94 0.75C11.9 1.37 9.12 2.63 6.6 4.54C6.65 4.51 9.77 2.95 14.4 2.17C15.95 1.9 17.67 1.73 19.5 1.73L19.5 1.73C26.83 1.73 32.36 4.52 32.4 4.54C29.88 2.63 27.1 1.37 24.06 0.75L24.78 0.17C28.3 0.48 31.26 1.59 33.64 3.49C36.07 7.8 37.15 12.6 37.63 16.23C37.94 18.5 38.06 20.42 38.01 22ZM16.73 14.82C16.73 12.79 15.26 11.13 13.45 11.13C11.64 11.13 10.17 12.79 10.17 14.82C10.17 16.86 11.64 18.51 13.45 18.51C15.26 18.51 16.73 16.86 16.73 14.82ZM28.83 14.82C28.83 12.79 27.36 11.13 25.55 11.13C23.74 11.13 22.27 12.79 22.27 14.82C22.27 16.86 23.74 18.51 25.55 18.51C27.36 18.51 28.83 16.86 28.83 14.82Z" />
</svg>