<svg xmlns="http://www.w3.org/2000/svg" viewBox="0 0 258 259" width="258" height="259">
	<style>
		tspan { white-space:pre }
		.shp0 { fill: #22589d } 
	</style>
	<g id="&lt;Group&gt;">
		<g id="&lt;Group&gt;">
			<path id="&lt;Compound Path&gt;" fill-rule="evenodd" class="shp0" d="M257.87 129.24L257.87 129.24C257.87 200.39 200.2 258.06 129.06 258.06L129.05 258.06C57.91 258.06 0.24 200.39 0.24 129.24L0.24 129.24C0.24 58.1 57.91 0.42 129.05 0.42L129.06 0.42C200.2 0.42 257.87 58.1 257.87 129.24ZM247.36 129.24C247.36 97.64 235.06 67.93 212.71 45.58C190.37 23.24 160.66 10.93 129.06 10.93C97.45 10.93 67.74 23.24 45.4 45.58C23.05 67.93 10.75 97.64 10.75 129.24C10.75 160.84 23.05 190.55 45.4 212.9C67.74 235.24 97.45 247.55 129.05 247.55C160.66 247.55 190.37 235.24 212.71 212.9C235.06 190.55 247.36 160.84 247.36 129.24Z" />
		</g>
		<g id="&lt;Group&gt;">
			<path id="&lt;Compound Path&gt;" class="shp0" d="M98.39 99.95L159.72 99.95L156.43 122.86L98.39 122.86L98.39 99.95ZM109.16 91.55C109.16 68.28 117.67 58.04 141.11 58.04L159.72 58.04L159.72 81.94L141.78 81.94C139.88 81.94 138.45 82.65 137.47 84.09C136.49 85.53 136 87.39 136 89.67L136 200.45L109.16 200.45L109.16 91.55Z" />
		</g>
	</g>
</svg>