<svg xmlns="http://www.w3.org/2000/svg" viewBox="0 0 259 258" width="259" height="258">
	<style>
		tspan { white-space:pre }
		.shp0 { fill: #4484e9 } 
		.shp1 { fill: #6689c9 } 
		.shp2 { fill: #4db74b } 
		.shp3 { fill: #ffcd05 } 
		.shp4 { fill: #e22f31 } 
	</style>
	<g id="&lt;Group&gt;">
		<path id="&lt;Compound Path&gt;" fill-rule="evenodd" class="shp0" d="M258.45 128.82L258.45 128.82C258.45 199.97 200.78 257.64 129.64 257.64L129.64 257.64C58.49 257.64 0.82 199.97 0.82 128.82L0.82 128.82C0.82 57.68 58.49 0.01 129.64 0.01L129.64 0.01C200.78 0.01 258.45 57.68 258.45 128.82ZM247.95 128.82C247.95 97.22 235.64 67.51 213.29 45.17C190.95 22.82 161.24 10.52 129.64 10.52C98.04 10.52 68.33 22.82 45.98 45.17C23.63 67.51 11.33 97.22 11.33 128.82C11.33 160.43 23.63 190.14 45.98 212.48C68.33 234.83 98.04 247.13 129.64 247.13C161.24 247.13 190.95 234.83 213.29 212.48C235.64 190.14 247.95 160.43 247.95 128.82Z" />
	</g>
	<g id="G 2 ">
		<path id="&lt;Compound Path&gt;" class="shp1" d="M182.83 168.11C180.09 172.73 176.8 176.95 172.68 180.46C149.79 162.63 154.13 166.06 152.03 164.19C159.52 158.47 162.37 153.13 164.52 145.95C164.95 144.51 164.82 143.95 163.04 143.97C152.45 144.06 141.86 144.01 131.26 144.01C129.02 144.01 129.02 144.01 129.02 141.69C129.02 134.51 129.05 127.33 128.99 120.15C128.98 118.77 129.22 118.24 130.78 118.24C150.31 118.3 169.85 118.28 189.39 118.26C190.45 118.26 191.11 118.34 191.29 119.62C193.72 136.71 191.77 153.03 182.83 168.11Z" />
		<path id="&lt;Compound Path&gt;" class="shp2" d="M172.68 180.46C165.67 187.12 157.38 191.56 148.06 193.91C126.08 199.47 105.82 195.96 87.83 181.76C80.4 175.89 74.55 168.64 70.42 160.06C77.58 154.51 84.74 148.95 91.9 143.39C93.87 148.39 96.31 153.12 99.95 157.14C114.73 173.46 136.02 173.98 152.03 164.19C154.03 165.98 149.75 162.6 172.68 180.46Z" />
		<path id="&lt;Compound Path&gt;" class="shp3" d="M91.9 143.39C84.74 148.95 77.58 154.51 70.42 160.06C61.16 142.84 60.97 118.66 70.48 101.18C94.25 119.49 90.64 116.75 92.06 117.68C89.19 126.24 89.33 134.81 91.9 143.39Z" />
		<path id="&lt;Compound Path&gt;" class="shp4" d="M172.04 83.24C153.65 101.25 155.06 101.12 153.73 99.9C135.27 82.98 102.36 89.41 92.06 117.68C90.65 116.76 94.35 119.57 70.48 101.18C77.12 86.57 94.31 69.67 118.05 65.88C138.22 62.66 156.28 67.41 171.88 80.85C172.87 81.7 173.11 82.19 172.04 83.24Z" />
	</g>
</svg>