<svg xmlns="http://www.w3.org/2000/svg" viewBox="0 0 27 27" width="27" height="27">
	<style>
		tspan { white-space:pre }
		.shp0 { fill: #6689c9 } 
		.shp1 { fill: #4db74b } 
		.shp2 { fill: #ffcd05 } 
		.shp3 { fill: #e22f31 } 
	</style>
	<g id="G 2 ">
		<path id="&lt;Compound Path&gt;" class="shp0" d="M24.69 21.27C24.14 22.2 23.48 23.04 22.66 23.74C18.08 20.18 18.95 20.86 18.53 20.49C20.02 19.34 20.59 18.28 21.02 16.84C21.11 16.55 21.08 16.44 20.73 16.44C18.61 16.46 16.49 16.45 14.37 16.45C13.92 16.45 13.92 16.45 13.92 15.99C13.92 14.55 13.93 13.12 13.92 11.68C13.92 11.4 13.96 11.3 14.28 11.3C18.18 11.31 22.09 11.31 26 11.3C26.21 11.3 26.34 11.32 26.38 11.57C26.86 14.99 26.48 18.26 24.69 21.27Z" />
		<path id="&lt;Compound Path&gt;" class="shp1" d="M22.66 23.74C21.25 25.07 19.6 25.96 17.73 26.43C13.34 27.54 9.28 26.84 5.69 24C4.2 22.83 3.03 21.38 2.21 19.66C3.64 18.55 5.07 17.44 6.5 16.33C6.89 17.33 7.38 18.27 8.11 19.08C11.07 22.34 15.32 22.45 18.53 20.49C18.93 20.85 18.07 20.17 22.66 23.74Z" />
		<path id="&lt;Compound Path&gt;" class="shp2" d="M6.5 16.33C5.07 17.44 3.64 18.55 2.21 19.66C0.35 16.22 0.31 11.38 2.22 7.89C6.97 11.55 6.25 11 6.53 11.19C5.96 12.9 5.99 14.61 6.5 16.33Z" />
		<path id="&lt;Compound Path&gt;" class="shp3" d="M22.53 4.3C18.85 7.9 19.13 7.87 18.87 7.63C15.17 4.25 8.59 5.53 6.53 11.19C6.25 11 6.99 11.56 2.22 7.89C3.54 4.96 6.98 1.58 11.73 0.83C15.76 0.18 19.38 1.13 22.5 3.82C22.69 3.99 22.74 4.09 22.53 4.3Z" />
	</g>
</svg>