<svg xmlns="http://www.w3.org/2000/svg" viewBox="0 0 29 24" width="29" height="24">
	<style>
		tspan { white-space:pre }
		.shp0 { fill: #ffffff } 
	</style>
	<g id="Het1PX.tif 18 ">
		<g id="&lt;Group&gt;">
			<path id="&lt;Path&gt;" class="shp0" d="M26.73 0.78C26.02 0.94 25.28 1.28 24.85 1.44C22.38 2.21 19.98 3.32 17.56 4.25C15.02 5.23 12.49 6.21 9.95 7.18C7.38 8.18 4.81 9.17 2.24 10.16C1.84 10.31 1.45 10.49 1.13 10.78C0.66 11.21 0.71 11.66 1.24 12C1.47 12.14 8.86 14.91 10.2 14.07C12.62 12.57 21.84 1.35 24.27 4.28C24.44 4.5 17.17 11.6 14.11 14.68C13.37 15.43 13.42 16.65 14.23 17.33C16.4 19.14 20.31 22.32 21.68 23.34C21.97 23.55 22.27 23.72 22.62 23.8C23.13 23.93 23.68 23.73 23.96 23.29C24.17 22.97 24.25 22.6 24.32 22.24C25.6 16.22 26.88 10.2 28.16 4.17C28.31 3.45 28.51 2.73 28.56 2.05C28.68 0.64 27.74 0.54 26.73 0.78Z" />
		</g>
	</g>
</svg>