<svg xmlns="http://www.w3.org/2000/svg" viewBox="0 0 258 259" width="258" height="259">
	<style>
		tspan { white-space:pre }
		.shp0 { fill: #24b6ff } 
	</style>
	<g id="&lt;Group&gt;">
		<path id="&lt;Compound Path&gt;" fill-rule="evenodd" class="shp0" d="M257.87 129.24L257.87 129.24C257.87 200.39 200.2 258.06 129.06 258.06L129.05 258.06C57.91 258.06 0.24 200.39 0.24 129.24L0.24 129.24C0.24 58.1 57.91 0.42 129.05 0.42L129.06 0.42C200.2 0.42 257.87 58.1 257.87 129.24ZM247.36 129.24C247.36 97.64 235.06 67.93 212.71 45.58C190.37 23.24 160.66 10.93 129.06 10.93C97.45 10.93 67.74 23.24 45.4 45.58C23.05 67.93 10.75 97.64 10.75 129.24C10.75 160.84 23.05 190.55 45.4 212.9C67.74 235.24 97.45 247.55 129.05 247.55C149.99 247.55 190.37 235.24 212.71 212.9C235.06 190.55 247.36 160.84 247.36 129.24Z" />
	</g>
	<g id="Het1PX.tif 21 ">
		<g id="&lt;Group&gt;">
			<path id="&lt;Path&gt;" class="shp0" d="M179.47 74C175.68 74.89 171.72 76.67 169.41 77.56C156.26 81.67 143.42 87.56 130.56 92.52C117.02 97.74 103.47 102.96 89.93 108.18C76.23 113.46 62.53 118.75 48.82 124.04C46.7 124.87 44.62 125.8 42.92 127.36C40.42 129.64 40.65 132.05 43.52 133.85C44.7 134.6 84.15 149.36 91.29 144.91C92.58 144.11 165.02 91.15 166.3 92.71C167.26 93.87 128.46 131.75 112.14 148.15C108.18 152.14 108.48 158.66 112.79 162.26C124.36 171.94 145.23 188.91 152.51 194.32C154.05 195.46 155.68 196.35 157.54 196.81C160.26 197.48 163.18 196.42 164.68 194.06C165.77 192.35 166.21 190.42 166.62 188.5C173.44 156.38 180.26 124.25 187.05 92.13C187.87 88.25 188.94 84.41 189.23 80.79C189.83 73.3 184.83 72.74 179.47 74Z" />
		</g>
	</g>
</svg>