<svg xmlns="http://www.w3.org/2000/svg" viewBox="0 0 115 125" width="115" height="125">
	<defs>
		<linearGradient id="grd1" gradientUnits="userSpaceOnUse"  x1="114.99" y1="126.793" x2="0.254" y2="126.793">
			<stop offset="0" stop-color="#db5aac"  />
			<stop offset="0.335" stop-color="#b554aa"  />
			<stop offset="0.701" stop-color="#47cdf4"  />
			<stop offset="1" stop-color="#66d4e4"  />
		</linearGradient>
	</defs>
	<style>
		tspan { white-space:pre }
		.shp0 { fill: url(#grd1) } 
	</style>
	<path id="&lt;Compound Path&gt;" fill-rule="evenodd" class="shp0" d="M113.5 0.65L1.74 0.65C0.92 0.65 0.25 1.31 0.25 2.13L0.25 13.37C0.25 14.19 0.92 14.85 1.74 14.85L113.5 14.85C114.32 14.85 114.99 14.19 114.99 13.37L114.99 2.13C114.99 1.31 114.32 0.65 113.5 0.65ZM64 31.44L64 123.37C64 124.6 65.44 125.25 66.36 124.45L76.46 115.65C77.57 114.69 78.2 113.28 78.2 111.81L78.2 44.8C78.2 43.92 78.92 43.21 79.79 43.21L104.16 43.21C105.63 43.21 106.99 42.44 107.74 41.17L114.05 30.59C114.46 29.89 113.96 29.01 113.15 29.01L66.43 29.01C65.09 29.01 64 30.09 64 31.44ZM48.81 29.01L2.09 29.01C1.28 29.01 0.78 29.89 1.2 30.59L7.5 41.17C8.25 42.44 9.61 43.21 11.08 43.21L35.45 43.21C36.33 43.21 37.04 43.92 37.04 44.8L37.04 111.81C37.04 113.28 37.68 114.69 38.79 115.65L48.89 124.45C49.81 125.25 51.24 124.6 51.24 123.37L51.24 31.44C51.24 30.09 50.15 29.01 48.81 29.01Z" />
</svg>