<svg xmlns="http://www.w3.org/2000/svg" viewBox="0 0 258 259" width="258" height="259">
	<style>
		tspan { white-space:pre }
		.shp0 { fill: #24b6ff } 
	</style>
	<g id="&lt;Group&gt;">
		<g id="&lt;Group&gt;">
			<path id="&lt;Compound Path&gt;" fill-rule="evenodd" class="shp0" d="M257.87 129.24L257.87 129.24C257.87 200.39 200.2 258.06 129.05 258.06L129.05 258.06C57.91 258.06 0.24 200.39 0.24 129.24L0.24 129.24C0.24 58.1 57.91 0.42 129.05 0.42L129.05 0.42C200.2 0.42 257.87 58.1 257.87 129.24ZM247.36 129.24C247.36 97.64 235.06 67.93 212.71 45.58C190.37 23.24 160.66 10.93 129.05 10.93C97.45 10.93 67.74 23.24 45.4 45.58C23.05 67.93 10.75 97.64 10.75 129.24C10.75 160.84 23.05 190.55 45.4 212.9C67.74 235.24 97.45 247.55 129.05 247.55C160.66 247.55 190.37 235.24 212.71 212.9C235.06 190.55 247.36 160.84 247.36 129.24Z" />
		</g>
		<g id="&lt;Group&gt;">
			<path id="&lt;Path&gt;" class="shp0" d="M206.98 89.53C201.58 91.67 195.8 93.04 189.77 93.54C196.03 90.13 199.58 85.19 202.04 78.44C196.19 81.59 191.09 83.18 184.28 84.26C179.07 78.39 171.47 74.57 162.93 74.27C146.53 73.7 132.78 86.33 132.22 102.47C132.14 104.77 132.33 107 132.75 109.16C108.11 107.09 84.46 93.78 70.44 75.58C67.73 79.81 62.54 99.49 80.44 115.83C75.58 115.51 71.04 114.04 67.11 111.71C67.11 111.83 67.1 111.96 67.1 112.08C66.97 115.82 69.12 133.49 89.93 141.58C87.41 142.15 84.78 142.43 82.06 142.33C80.15 142.27 78.3 142.02 76.49 141.61C79.88 153.35 93.25 163.98 103.53 162.87C93.09 170.37 61.45 173.8 59.13 173.45C71.99 182.2 89.41 189.85 106.16 190.43C152.59 192.05 180.27 158.61 188.96 125.51C190.5 119.66 191.39 113.74 191.59 107.93C191.64 106.67 191.66 105.4 191.65 104.15C197.59 100.23 202.8 95.26 206.98 89.53Z" />
		</g>
	</g>
</svg>